<svg width="21" height="21" viewBox="0 0 21 21" fill="none" xmlns="http://www.w3.org/2000/svg">
<path d="M19.7177 9.73009H11.5092V1.52156C11.5092 1.09655 11.1646 0.752014 10.7396 0.752014C10.3146 0.752014 9.97008 1.09655 9.97008 1.52156V9.73009H1.76155C1.33654 9.73009 0.992004 10.0746 0.992004 10.4996C0.992004 10.9247 1.33654 11.2692 1.76155 11.2692H9.97008V19.4777C9.97008 19.9027 10.3146 20.2473 10.7396 20.2473C11.1646 20.2473 11.5092 19.9027 11.5092 19.4777V11.2692H19.7177C20.1427 11.2692 20.4873 10.9247 20.4873 10.4996C20.4873 10.0746 20.1427 9.73009 19.7177 9.73009Z" fill="white" stroke="white"/>
</svg>
