<svg width="24" height="25" viewBox="0 0 24 25" fill="none" xmlns="http://www.w3.org/2000/svg">
<g id="vuesax/linear/setting-2">
<g id="vuesax/linear/setting-2_2">
<g id="setting-2">
<path id="Vector" d="M12 15.48C13.6569 15.48 15 14.1368 15 12.48C15 10.8231 13.6569 9.47998 12 9.47998C10.3431 9.47998 9 10.8231 9 12.48C9 14.1368 10.3431 15.48 12 15.48Z" stroke="#8F9BB3" stroke-width="1.5" stroke-miterlimit="10" stroke-linecap="round" stroke-linejoin="round"/>
<path id="Vector_2" d="M2 13.36V11.6C2 10.56 2.85 9.69998 3.9 9.69998C5.71 9.69998 6.45 8.41998 5.54 6.84998C5.02 5.94998 5.33 4.77998 6.24 4.25998L7.97 3.26998C8.76 2.79998 9.78 3.07998 10.25 3.86998L10.36 4.05998C11.26 5.62998 12.74 5.62998 13.65 4.05998L13.76 3.86998C14.23 3.07998 15.25 2.79998 16.04 3.26998L17.77 4.25998C18.68 4.77998 18.99 5.94998 18.47 6.84998C17.56 8.41998 18.3 9.69998 20.11 9.69998C21.15 9.69998 22.01 10.55 22.01 11.6V13.36C22.01 14.4 21.16 15.26 20.11 15.26C18.3 15.26 17.56 16.54 18.47 18.11C18.99 19.02 18.68 20.18 17.77 20.7L16.04 21.69C15.25 22.16 14.23 21.88 13.76 21.09L13.65 20.9C12.75 19.33 11.27 19.33 10.36 20.9L10.25 21.09C9.78 21.88 8.76 22.16 7.97 21.69L6.24 20.7C5.33 20.18 5.02 19.01 5.54 18.11C6.45 16.54 5.71 15.26 3.9 15.26C2.85 15.26 2 14.4 2 13.36Z" stroke="#8F9BB3" stroke-width="1.5" stroke-miterlimit="10" stroke-linecap="round" stroke-linejoin="round"/>
</g>
</g>
</g>
</svg>
